<svg class="svg-icon" style="width: 1em; height: 1em;vertical-align: middle;fill: currentColor;overflow: hidden;" viewBox="0 0 1024 1024" version="1.1" xmlns="http://www.w3.org/2000/svg"><path d="M583.8 347.6H387V178.9c0-54.3 44.1-98.4 98.4-98.4 54.4 0 98.4 44.1 98.4 98.4v168.7z m0 0" fill="#FFFFFF" /><path d="M344.8 347.6H626v42.2H344.8z" fill="#F0BB5D" /><path d="M879.1 164.8c0 23.3-18.9 42.2-42.2 42.2-23.3 0-42.2-18.9-42.2-42.2 0-23.3 18.9-42.2 42.2-42.2 23.3 0 42.2 18.9 42.2 42.2z m0 0M176.1 164.8c0 23.3-18.9 42.2-42.2 42.2-23.3 0-42.2-18.9-42.2-42.2 0-23.3 18.9-42.2 42.2-42.2 23.3 0 42.2 18.9 42.2 42.2z m0 0" fill="#EEAC38" /><path d="M597.9 671h42.2v70.3h-42.2zM640.1 375.7h42.2v84.4h-42.2zM288.6 375.7h42.2v84.4h-42.2zM330.7 671h42.2v70.3h-42.2z" fill="#F0BB5D" /><path d="M668.2 811.6h84.4v126.5h-84.4zM218.3 811.6h84.4v126.5h-84.4z" fill="#EEAC38" /><path d="M218.3 938.1H148V910l70.3-28.1v56.2z m0 0M752.5 938.1h70.3V910l-70.3-28.1v56.2z m0 0" fill="#206BAB" /><path d="M372.9 572.5h225v154.6h-225z" fill="#74A2CA" /><path d="M485.4 572.5h112.5v154.6H485.4z" fill="#206BAB" /><path d="M330.7 389.8H640v182.8H330.7z" fill="#74A2CA" /><path d="M485.4 389.8h154.7v182.8H485.4z" fill="#206BAB" /><path d="M457.3 446h56.2v56.2h-56.2z" fill="#F0BB5D" /><path d="M527.4 516.1h-83.9v-83.9h83.9v83.9z m-56.3-27.7h28.6v-28.6h-28.6v28.6z m0 0" fill="#1C1C1A" /><path d="M541.7 460.3h28.1V488h-28.1zM583.8 460.3h28.1V488h-28.1zM358.9 460.3H387V488h-28.1zM401.1 460.3h28.1V488h-28.1z" fill="#FFFFFF" /><path d="M439 195.7l-19.6-19.6 35.1-35.1 19.6 19.6-35.1 35.1z m0 0M439 280l-19.6-19.6 98.4-98.4 19.6 19.6L439 280z m0 0M523.3 280l-19.6-19.6 28.1-28.1 19.6 19.6-28.1 28.1z m0 0M766.6 431.7h-28.1V404h28.1c7.5 0 14.8-1.4 21.6-4.3l10.6 25.6c-10.2 4.3-21 6.4-32.2 6.4z m59.8-24.9l-19.7-19.5c10.5-10.6 16.4-24.8 16.4-39.7v-0.9h27.7v0.9c-0.1 22.3-8.7 43.3-24.4 59.2z m24.3-88H823V263h27.7v55.8z m0 0M232.3 431.7h-28.1c-11.2 0-22-2.2-32.3-6.4l10.6-25.6c6.9 2.8 14.1 4.3 21.6 4.3h28.1v27.7z m-87.9-24.9c-15.7-15.9-24.4-36.9-24.4-59.2v-0.9h27.7v0.9c0 15 5.8 29.1 16.4 39.7l-19.7 19.5z m3.4-88h-27.7V263h27.7v55.8z m0 0M653.9 586.4V375.9h-337v210.5h42.2V741h252.6V586.4h42.2zM344.6 403.6h281.6v155.1H344.6V403.6zM584 713.4H386.8v-127H584v127z m0 0" fill="#1C1C1A" /><path d="M626 333.7h-28.3V178.9c0-20-5.3-38.8-14.5-55.1V52.3H555v38.6c-19.1-15.2-43.3-24.3-69.6-24.3-26.7 0-51.3 9.4-70.6 25.1V52.3h-28.1v73.1c-8.6 15.9-13.5 34.1-13.5 53.4v154.9h-28.3v27.7H626v-27.7zM400.8 178.9c0-46.6 37.9-84.6 84.6-84.6 46.6 0 84.6 37.9 84.6 84.6v154.9H400.8V178.9z m0 0M836.7 951.9v-51.3l-69.3-27.7v-75.2h-57.3v-28.3h-27.7v28.3h-28.1v154.2h182.4z m-97-27.7H682v-98.9h57.7v98.9z m69.3-4.9v4.9h-41.6v-21.5l41.6 16.6z m0 0M316.9 699.3h-0.2c-30.9 0-56 25.1-56 56h27.7c0-15.6 12.7-28.3 28.3-28.3h0.2v14.3h27.7V671h-27.7v28.3z m0 0M316.5 951.9V797.7h-28.1v-28.3h-27.7v28.3h-57.3v75.2l-69.3 27.7v51.3h182.4z m-154.7-27.7v-4.9l41.6-16.6v21.5h-41.6z m127 0h-57.7v-98.9h57.7v98.9z m0 0M682.5 755.3h27.7c0-30.9-25.1-56-56-56h-0.2V671h-27.7v70.3H654V727h0.2c15.5 0 28.3 12.7 28.3 28.3z m0 0M696.1 431.7h14.3V404h-14.3v-28.3h-27.7v84.4h27.7v-28.4z m0 0M892.9 164.8c0-30.9-25.1-56-56-56s-56 25.1-56 56c0 26.1 18 48.1 42.2 54.3v16h27.7v-16c24.1-6.2 42.1-28.2 42.1-54.3z m-56 28.4c-15.6 0-28.3-12.7-28.3-28.3 0-15.6 12.7-28.3 28.3-28.3 15.6 0 28.3 12.7 28.3 28.3 0 15.5-12.7 28.3-28.3 28.3z m0 0M274.7 460.1h27.7v-84.4h-27.7V404h-14.3v27.7h14.3v28.4z m0 0M147.8 235.1v-16c24.2-6.2 42.2-28.2 42.2-54.3 0-30.9-25.1-56-56-56s-56 25.1-56 56c0 26.1 18 48.1 42.2 54.3v16h27.6z m-42.2-70.3c0-15.6 12.7-28.3 28.3-28.3 15.6 0 28.3 12.7 28.3 28.3 0 15.6-12.7 28.3-28.3 28.3-15.6 0.1-28.3-12.7-28.3-28.3z m0 0" fill="#1C1C1A" /><path d="M471.6 600.7h27.7v98.4h-27.7z" fill="#FFFFFF" /></svg>