<svg class="svg-icon" style="width: 1em;height: 1em;vertical-align: middle;fill: currentColor;overflow: hidden;" viewBox="0 0 1024 1024" version="1.1" xmlns="http://www.w3.org/2000/svg"><path d="M256 469.333333a85.333333 85.333333 0 0 1 85.333333-85.333333h341.333334a85.333333 85.333333 0 0 1 85.333333 85.333333v298.666667a85.333333 85.333333 0 0 1-85.333333 85.333333H341.333333a85.333333 85.333333 0 0 1-85.333333-85.333333z m256-384a85.333333 85.333333 0 0 0-85.333333 85.333334 85.333333 85.333333 0 0 0 42.666666 73.386666V298.666667H341.333333a170.666667 170.666667 0 0 0-170.666666 170.666666v85.333334a85.333333 85.333333 0 0 0 0 170.666666v42.666667a170.666667 170.666667 0 0 0 170.666666 170.666667h341.333334a170.666667 170.666667 0 0 0 170.666666-170.666667v-42.666667a85.333333 85.333333 0 0 0 0-170.666666v-85.333334a170.666667 170.666667 0 0 0-170.666666-170.666666h-128V244.053333a85.333333 85.333333 0 0 0-24.32-156.586666A67.413333 67.413333 0 0 0 512 85.333333z m-42.666667 448a64 64 0 0 0-128 0 21.333333 21.333333 0 0 0 21.333334 21.333334h85.333333a21.333333 21.333333 0 0 0 21.333333-21.333334z m149.333334-64a64 64 0 0 0-64 64 21.333333 21.333333 0 0 0 21.333333 21.333334h85.333333a21.333333 21.333333 0 0 0 21.333334-21.333334 64 64 0 0 0-64-64z m-21.333334 170.666667h-170.666666a42.666667 42.666667 0 0 0-42.666667 42.666667 85.333333 85.333333 0 0 0 85.333333 85.333333h85.333334a85.333333 85.333333 0 0 0 85.333333-85.333333 42.666667 42.666667 0 0 0-42.666667-42.666667z"  /></svg>